<?xml version="1.0" standalone="no"?>
<!DOCTYPE svg PUBLIC "-//W3C//DTD SVG 20010904//EN"
 "http://www.w3.org/TR/2001/REC-SVG-20010904/DTD/svg10.dtd">
<svg version="1.0" xmlns="http://www.w3.org/2000/svg"
 width="512.000000pt" height="512.000000pt" viewBox="0 0 512.000000 512.000000"
 preserveAspectRatio="xMidYMid meet">

<g transform="translate(0.000000,512.000000) scale(0.100000,-0.100000)"
fill="#000000" stroke="none">
<path d="M3535 4069 c-104 -33 -207 -64 -228 -70 -58 -15 -101 -59 -100 -100
2 -29 536 -1806 547 -1816 2 -3 107 27 232 65 126 38 267 80 312 92 46 13 86
28 88 34 2 6 -120 416 -270 911 -298 980 -286 946 -359 944 -18 0 -117 -27
-222 -60z"/>
<path d="M560 4097 c-61 -21 -70 -54 -70 -259 l0 -178 335 0 335 0 0 185 c0
192 -5 220 -43 246 -30 19 -504 25 -557 6z"/>
<path d="M2098 3653 l-248 -3 0 -170 0 -170 335 0 335 0 0 175 0 175 -87 -2
c-49 -2 -199 -4 -335 -5z"/>
<path d="M490 2315 l0 -985 335 0 335 0 0 985 0 985 -335 0 -335 0 0 -985z"/>
<path d="M1850 1955 l0 -175 335 0 335 0 0 175 0 175 -335 0 -335 0 0 -175z"/>
<path d="M4405 1899 c-49 -16 -189 -59 -310 -95 -121 -37 -223 -70 -227 -73
-8 -7 82 -314 103 -352 6 -11 26 -27 46 -35 33 -14 42 -13 231 45 108 32 223
66 254 75 65 18 98 52 98 99 0 23 -95 357 -103 363 -1 1 -42 -11 -92 -27z"/>
</g>
</svg>
